<?xml version="1.0" encoding="UTF-8"?>
<svg xmlns="http://www.w3.org/2000/svg" xmlns:xlink="http://www.w3.org/1999/xlink" width="1920pt" height="1080pt" viewBox="0 0 1920 1080" version="1.1">
<g id="surface1">
<rect x="0" y="0" width="1920" height="1080" style="fill:rgb(3.137207%,12.156677%,25.097656%);fill-opacity:1;stroke:none;"/>
<path style=" stroke:none;fill-rule:nonzero;fill:rgb(30.999756%,37.998962%,67.498779%);fill-opacity:1;" d="M 1455.371094 420.609375 L 1474.488281 420.609375 L 1474.488281 405.605469 L 1455.371094 405.605469 L 1455.371094 420.609375 "/>
<path style=" stroke:none;fill-rule:nonzero;fill:rgb(55.299377%,18.399048%,55.699158%);fill-opacity:1;" d="M 1384.980469 629.222656 L 1443.429688 629.222656 L 1443.429688 566.863281 L 1384.980469 566.863281 L 1384.980469 629.222656 "/>
<path style=" stroke:none;fill-rule:nonzero;fill:rgb(36.499023%,50.19989%,75.698853%);fill-opacity:1;" d="M 1423.421875 665.835938 L 1461.828125 665.835938 L 1461.828125 642.566406 L 1423.421875 642.566406 L 1423.421875 665.835938 "/>
<path style=" stroke:none;fill-rule:nonzero;fill:rgb(94.099426%,30.198669%,14.498901%);fill-opacity:1;" d="M 1400.648438 699.191406 L 1446.808594 699.191406 L 1446.808594 653.445313 L 1400.648438 653.445313 L 1400.648438 699.191406 "/>
<path style=" stroke:none;fill-rule:nonzero;fill:rgb(83.499146%,14.498901%,16.499329%);fill-opacity:1;" d="M 1457.828125 629.222656 L 1497.359375 629.222656 L 1497.359375 611.90625 L 1457.828125 611.90625 L 1457.828125 629.222656 "/>
<path style=" stroke:none;fill-rule:nonzero;fill:rgb(96.899414%,62.69989%,12.199402%);fill-opacity:1;" d="M 1443.378906 590.648438 L 1483.910156 590.648438 L 1483.910156 580.390625 L 1443.378906 580.390625 L 1443.378906 590.648438 "/>
<path style=" stroke:none;fill-rule:nonzero;fill:rgb(41.19873%,58.399963%,80.39856%);fill-opacity:1;" d="M 1497.308594 619.710938 L 1525.640625 619.710938 L 1525.640625 611.90625 L 1497.308594 611.90625 L 1497.308594 619.710938 "/>
<path style=" stroke:none;fill-rule:nonzero;fill:rgb(18.399048%,43.099976%,70.999146%);fill-opacity:1;" d="M 1443.378906 580.394531 L 1482.101563 580.394531 L 1482.101563 530.71875 L 1443.378906 530.71875 L 1443.378906 580.394531 "/>
<path style=" stroke:none;fill-rule:nonzero;fill:rgb(44.299316%,79.598999%,87.5%);fill-opacity:1;" d="M 1367.738281 566.863281 L 1443.429688 566.863281 L 1443.429688 492.632813 L 1367.738281 492.632813 L 1367.738281 566.863281 "/>
<path style=" stroke:none;fill-rule:nonzero;fill:rgb(57.299805%,77.999878%,25.099182%);fill-opacity:1;" d="M 1323.699219 533.714844 L 1374.25 533.714844 L 1374.25 492.644531 L 1323.699219 492.644531 L 1323.699219 533.714844 "/>
<path style=" stroke:none;fill-rule:nonzero;fill:rgb(30.999756%,37.998962%,67.498779%);fill-opacity:1;" d="M 1389.28125 493.183594 L 1474.929688 493.183594 L 1474.929688 423.117188 L 1389.28125 423.117188 L 1389.28125 493.183594 "/>
<path style=" stroke:none;fill-rule:nonzero;fill:rgb(8.198547%,61.199951%,84.298706%);fill-opacity:1;" d="M 1482.03125 577.964844 L 1544.441406 577.964844 L 1544.441406 501.714844 L 1482.03125 501.714844 L 1482.03125 577.964844 "/>
<path style=" stroke:none;fill-rule:nonzero;fill:rgb(96.899414%,62.69989%,12.199402%);fill-opacity:1;" d="M 1472.210938 612.113281 L 1525.640625 612.113281 L 1525.640625 545.105469 L 1472.210938 545.105469 L 1472.210938 612.113281 "/>
<path style=" stroke:none;fill-rule:nonzero;fill:rgb(83.499146%,14.498901%,16.499329%);fill-opacity:1;" d="M 1443.378906 629.175781 L 1482.910156 629.175781 L 1482.910156 590.492188 L 1443.378906 590.492188 L 1443.378906 629.175781 "/>
<path style=" stroke:none;fill-rule:nonzero;fill:rgb(8.599854%,60.398865%,65.499878%);fill-opacity:1;" d="M 1420.28125 642.808594 L 1471.289063 642.808594 L 1471.289063 614.78125 L 1420.28125 614.78125 L 1420.28125 642.808594 "/>
<path style=" stroke:none;fill-rule:nonzero;fill:rgb(64.698792%,74.899292%,87.799072%);fill-opacity:1;" d="M 1525.578125 604.753906 L 1536.480469 604.753906 L 1536.480469 571.179688 L 1525.578125 571.179688 L 1525.578125 604.753906 "/>
<path style=" stroke:none;fill-rule:nonzero;fill:rgb(20.399475%,74.099731%,70.199585%);fill-opacity:1;" d="M 1544.441406 517.023438 L 1572.988281 517.023438 L 1572.988281 499.363281 L 1544.441406 499.363281 L 1544.441406 517.023438 "/>
<path style=" stroke:none;fill-rule:nonzero;fill:rgb(67.799377%,12.5%,34.098816%);fill-opacity:1;" d="M 1541.78125 528.507813 L 1562.398438 528.507813 L 1562.398438 517.023438 L 1541.78125 517.023438 L 1541.78125 528.507813 "/>
<path style=" stroke:none;fill-rule:nonzero;fill:rgb(45.899963%,77.598572%,60.798645%);fill-opacity:1;" d="M 1443.378906 530.796875 L 1482.101563 530.796875 L 1482.101563 462.84375 L 1443.378906 462.84375 L 1443.378906 530.796875 "/>
<path style=" stroke:none;fill-rule:nonzero;fill:rgb(89.7995%,87.799072%,11.399841%);fill-opacity:1;" d="M 1482.03125 501.714844 L 1534.128906 501.714844 L 1534.128906 435.484375 L 1482.03125 435.484375 L 1482.03125 501.714844 "/>
<path style=" stroke:none;fill-rule:nonzero;fill:rgb(13.699341%,74.899292%,82.699585%);fill-opacity:1;" d="M 1474.878906 485.21875 L 1512.859375 485.21875 L 1512.859375 423.117188 L 1474.878906 423.117188 L 1474.878906 485.21875 "/>
<path style=" stroke:none;fill-rule:nonzero;fill:rgb(41.598511%,65.899658%,85.899353%);fill-opacity:1;" d="M 1526.179688 501.714844 L 1577.988281 501.714844 L 1577.988281 483.476563 L 1526.179688 483.476563 L 1526.179688 501.714844 "/>
<path style=" stroke:none;fill-rule:nonzero;fill:rgb(88.598633%,30.599976%,60.798645%);fill-opacity:1;" d="M 1534.179688 483.5 L 1558.921875 483.5 L 1558.921875 443.484375 L 1534.179688 443.484375 L 1534.179688 483.5 "/>
<path style=" stroke:none;fill-rule:nonzero;fill:rgb(37.599182%,27.099609%,60.798645%);fill-opacity:1;" d="M 1551.5 472.867188 L 1574.449219 472.867188 L 1574.449219 456.085938 L 1551.5 456.085938 L 1551.5 472.867188 "/>
<path style=" stroke:none;fill-rule:nonzero;fill:rgb(97.599792%,84.698486%,2.398682%);fill-opacity:1;" d="M 1545.609375 489.644531 L 1578 489.644531 L 1578 472.867188 L 1545.609375 472.867188 L 1545.609375 489.644531 "/>
<path style=" stroke:none;fill-rule:nonzero;fill:rgb(30.999756%,37.998962%,67.498779%);fill-opacity:1;" d="M 1455.238281 420.609375 L 1474.699219 420.609375 L 1474.699219 404.875 L 1455.238281 404.875 L 1455.238281 420.609375 "/>
<path style=" stroke:none;fill-rule:nonzero;fill:rgb(30.999756%,37.998962%,67.498779%);fill-opacity:1;" d="M 1389.28125 444.535156 L 1424.609375 444.535156 L 1424.609375 405.355469 L 1389.28125 405.355469 L 1389.28125 444.535156 "/>
<path style=" stroke:none;fill-rule:nonzero;fill:rgb(6.698608%,72.499084%,90.99884%);fill-opacity:1;" d="M 1280.160156 493.183594 L 1389.429688 493.183594 L 1389.429688 405.355469 L 1280.160156 405.355469 L 1280.160156 493.183594 "/>
<path style=" stroke:none;fill-rule:nonzero;fill:rgb(19.599915%,68.998718%,28.999329%);fill-opacity:1;" d="M 1336.21875 424.613281 L 1374.25 424.613281 L 1374.25 375.078125 L 1336.21875 375.078125 L 1336.21875 424.613281 "/>
<path style=" stroke:none;fill-rule:nonzero;fill:rgb(90.19928%,71.798706%,12.89978%);fill-opacity:1;" d="M 1257.140625 513.1875 L 1327.699219 513.1875 L 1327.699219 485.660156 L 1257.140625 485.660156 L 1257.140625 513.1875 "/>
<path style=" stroke:none;fill-rule:nonzero;fill:rgb(72.499084%,82.398987%,19.999695%);fill-opacity:1;" d="M 1424.539063 423.117188 L 1451.929688 423.117188 L 1451.929688 379.574219 L 1424.539063 379.574219 L 1424.539063 423.117188 "/>
<path style=" stroke:none;fill-rule:nonzero;fill:rgb(57.299805%,77.999878%,25.099182%);fill-opacity:1;" d="M 1461.121094 556.179688 L 1472.210938 556.179688 L 1472.210938 545.105469 L 1461.121094 545.105469 L 1461.121094 556.179688 "/>
<path style=" stroke:none;fill-rule:nonzero;fill:rgb(22.744751%,70.195007%,89.4104%);fill-opacity:1;" d="M 1066.160156 485.578125 L 996.328125 485.578125 L 996.328125 599.773438 C 996.328125 637.5625 973.324219 647.425781 958.125 647.425781 C 935.941406 647.425781 923.613281 637.5625 923.613281 609.214844 L 923.613281 485.578125 L 853.789063 485.578125 L 853.789063 613.738281 C 853.789063 669.597656 871.449219 704.921875 932.660156 704.921875 C 957.296875 704.921875 984.414063 691.363281 997.550781 669.597656 L 998.390625 669.597656 L 998.390625 698.761719 L 1066.160156 698.761719 L 1066.160156 485.578125 "/>
<path style=" stroke:none;fill-rule:nonzero;fill:rgb(22.744751%,70.195007%,89.4104%);fill-opacity:1;" d="M 1082.578125 698.761719 L 1152.410156 698.761719 L 1152.410156 405.480469 L 1082.578125 405.480469 Z M 643.90625 698.761719 L 846.808594 698.761719 L 846.808594 645.382813 L 732.628906 645.382813 L 839.011719 538.5625 L 839.011719 485.578125 L 652.535156 485.578125 L 652.535156 538.980469 L 750.285156 538.980469 L 643.90625 644.546875 Z M 342 698.761719 L 420.453125 698.761719 L 438.941406 646.191406 L 541.21875 646.191406 L 559.292969 698.761719 L 638.976563 698.761719 L 529.304688 405.492188 L 451.667969 405.492188 Z M 489.875 486.820313 L 490.699219 486.820313 L 523.140625 589.515625 L 456.597656 589.515625 L 489.875 486.820313 "/>
</g>
</svg>
